<?xml version="1.0" encoding="UTF-8" standalone="no"?>
<!DOCTYPE svg PUBLIC "-//W3C//DTD SVG 1.1//EN"
 "http://www.w3.org/Graphics/SVG/1.1/DTD/svg11.dtd">
<!-- Generated by graphviz version 5.0.0 (20220707.1540)
 -->
<!-- Title: dependencies Pages: 1 -->
<svg width="699pt" height="250pt"
 viewBox="0.00 0.00 699.00 249.80" xmlns="http://www.w3.org/2000/svg" xmlns:xlink="http://www.w3.org/1999/xlink">
<g id="graph0" class="graph" transform="scale(1 1) rotate(0) translate(4 245.8)">
<title>dependencies</title>
<polygon fill="white" stroke="transparent" points="-4,4 -4,-245.8 695,-245.8 695,4 -4,4"/>
<text text-anchor="middle" x="345.5" y="-8.2" font-family="sans-serif" font-size="14.00">dependencies</text>
<g id="clust1" class="cluster">
<title>cluster_AppModule</title>
<polygon fill="none" stroke="black" stroke-dasharray="1,5" points="8,-108.8 8,-233.8 506,-233.8 506,-108.8 8,-108.8"/>
</g>
<g id="clust3" class="cluster">
<title>cluster_AppModule_imports</title>
<polygon fill="none" stroke="black" points="154,-116.8 154,-168.8 498,-168.8 498,-116.8 154,-116.8"/>
</g>
<g id="clust6" class="cluster">
<title>cluster_AppModule_providers</title>
<polygon fill="none" stroke="black" points="16,-116.8 16,-168.8 146,-168.8 146,-116.8 16,-116.8"/>
</g>
<g id="clust7" class="cluster">
<title>cluster_OrderModule</title>
<polygon fill="none" stroke="black" stroke-dasharray="1,5" points="41,-32.8 41,-100.8 199,-100.8 199,-32.8 41,-32.8"/>
</g>
<g id="clust12" class="cluster">
<title>cluster_OrderModule_providers</title>
<polygon fill="none" stroke="black" points="49,-40.8 49,-92.8 191,-92.8 191,-40.8 49,-40.8"/>
</g>
<g id="clust13" class="cluster">
<title>cluster_ProductsModule</title>
<polygon fill="none" stroke="black" stroke-dasharray="1,5" points="207,-32.8 207,-100.8 387,-100.8 387,-32.8 207,-32.8"/>
</g>
<g id="clust18" class="cluster">
<title>cluster_ProductsModule_providers</title>
<polygon fill="none" stroke="black" points="215,-40.8 215,-92.8 379,-92.8 379,-40.8 215,-40.8"/>
</g>
<g id="clust19" class="cluster">
<title>cluster_UsersModule</title>
<polygon fill="none" stroke="black" stroke-dasharray="1,5" points="395,-32.8 395,-100.8 683,-100.8 683,-32.8 395,-32.8"/>
</g>
<g id="clust24" class="cluster">
<title>cluster_UsersModule_providers</title>
<polygon fill="none" stroke="black" points="403,-40.8 403,-92.8 675,-92.8 675,-40.8 403,-40.8"/>
</g>
<!-- OrderModule -->
<g id="node1" class="node">
<title>OrderModule</title>
<polygon fill="#8dd3c7" stroke="black" points="254.2,-160.8 251.2,-164.8 230.2,-164.8 227.2,-160.8 161.8,-160.8 161.8,-124.8 254.2,-124.8 254.2,-160.8"/>
<text text-anchor="middle" x="208" y="-138.6" font-family="Times,serif" font-size="14.00">OrderModule</text>
</g>
<!-- AppModule -->
<g id="node4" class="node">
<title>AppModule</title>
<polygon fill="#8dd3c7" stroke="black" points="308.66,-225.8 305.66,-229.8 284.66,-229.8 281.66,-225.8 225.34,-225.8 225.34,-189.8 308.66,-189.8 308.66,-225.8"/>
<text text-anchor="middle" x="267" y="-203.6" font-family="Times,serif" font-size="14.00">AppModule</text>
</g>
<!-- OrderModule&#45;&gt;AppModule -->
<g id="edge1" class="edge">
<title>OrderModule&#45;&gt;AppModule</title>
<path fill="none" stroke="black" d="M239.63,-160.91C239.63,-160.91 239.63,-179.79 239.63,-179.79"/>
<polygon fill="black" stroke="black" points="236.13,-179.79 239.63,-189.79 243.13,-179.79 236.13,-179.79"/>
</g>
<!-- ProductsModule -->
<g id="node2" class="node">
<title>ProductsModule</title>
<polygon fill="#8dd3c7" stroke="black" points="380.05,-160.8 377.05,-164.8 356.05,-164.8 353.05,-160.8 271.95,-160.8 271.95,-124.8 380.05,-124.8 380.05,-160.8"/>
<text text-anchor="middle" x="326" y="-138.6" font-family="Times,serif" font-size="14.00">ProductsModule</text>
</g>
<!-- ProductsModule&#45;&gt;AppModule -->
<g id="edge2" class="edge">
<title>ProductsModule&#45;&gt;AppModule</title>
<path fill="none" stroke="black" d="M290.28,-160.91C290.28,-160.91 290.28,-179.79 290.28,-179.79"/>
<polygon fill="black" stroke="black" points="286.78,-179.79 290.28,-189.79 293.78,-179.79 286.78,-179.79"/>
</g>
<!-- UsersModule -->
<g id="node3" class="node">
<title>UsersModule</title>
<polygon fill="#8dd3c7" stroke="black" points="489.94,-160.8 486.94,-164.8 465.94,-164.8 462.94,-160.8 398.06,-160.8 398.06,-124.8 489.94,-124.8 489.94,-160.8"/>
<text text-anchor="middle" x="444" y="-138.6" font-family="Times,serif" font-size="14.00">UsersModule</text>
</g>
<!-- UsersModule&#45;&gt;AppModule -->
<g id="edge3" class="edge">
<title>UsersModule&#45;&gt;AppModule</title>
<path fill="none" stroke="black" d="M444,-160.91C444,-180.14 444,-207.8 444,-207.8 444,-207.8 318.95,-207.8 318.95,-207.8"/>
<polygon fill="black" stroke="black" points="318.95,-204.3 308.95,-207.8 318.95,-211.3 318.95,-204.3"/>
</g>
<!-- AppService -->
<g id="node5" class="node">
<title>AppService</title>
<ellipse fill="#fdb462" stroke="black" cx="81" cy="-142.8" rx="56.75" ry="18"/>
<text text-anchor="middle" x="81" y="-138.6" font-family="Times,serif" font-size="14.00">AppService</text>
</g>
<!-- AppService&#45;&gt;AppModule -->
<g id="edge4" class="edge">
<title>AppService&#45;&gt;AppModule</title>
<path fill="none" stroke="black" d="M81,-160.91C81,-180.14 81,-207.8 81,-207.8 81,-207.8 215.26,-207.8 215.26,-207.8"/>
<polygon fill="black" stroke="black" points="215.26,-211.3 225.26,-207.8 215.26,-204.3 215.26,-211.3"/>
</g>
<!-- OrderService -->
<g id="node6" class="node">
<title>OrderService</title>
<ellipse fill="#fdb462" stroke="black" cx="120" cy="-66.8" rx="62.53" ry="18"/>
<text text-anchor="middle" x="120" y="-62.6" font-family="Times,serif" font-size="14.00">OrderService</text>
</g>
<!-- OrderService&#45;&gt;OrderModule -->
<g id="edge5" class="edge">
<title>OrderService&#45;&gt;OrderModule</title>
<path fill="none" stroke="black" d="M172.21,-76.74C172.21,-76.74 172.21,-114.71 172.21,-114.71"/>
<polygon fill="black" stroke="black" points="168.71,-114.71 172.21,-124.71 175.71,-114.71 168.71,-114.71"/>
</g>
<!-- ProductsService -->
<g id="node7" class="node">
<title>ProductsService</title>
<ellipse fill="#fdb462" stroke="black" cx="297" cy="-66.8" rx="73.59" ry="18"/>
<text text-anchor="middle" x="297" y="-62.6" font-family="Times,serif" font-size="14.00">ProductsService</text>
</g>
<!-- ProductsService&#45;&gt;ProductsModule -->
<g id="edge6" class="edge">
<title>ProductsService&#45;&gt;ProductsModule</title>
<path fill="none" stroke="black" d="M321.26,-84.05C321.26,-84.05 321.26,-114.56 321.26,-114.56"/>
<polygon fill="black" stroke="black" points="317.76,-114.56 321.26,-124.56 324.76,-114.56 317.76,-114.56"/>
</g>
<!-- JwtStrategy -->
<g id="node8" class="node">
<title>JwtStrategy</title>
<ellipse fill="#fdb462" stroke="black" cx="610" cy="-66.8" rx="56.77" ry="18"/>
<text text-anchor="middle" x="610" y="-62.6" font-family="Times,serif" font-size="14.00">JwtStrategy</text>
</g>
<!-- JwtStrategy&#45;&gt;UsersModule -->
<g id="edge7" class="edge">
<title>JwtStrategy&#45;&gt;UsersModule</title>
<path fill="none" stroke="black" d="M610,-84.81C610,-107.29 610,-142.8 610,-142.8 610,-142.8 499.8,-142.8 499.8,-142.8"/>
<polygon fill="black" stroke="black" points="499.8,-139.3 489.8,-142.8 499.8,-146.3 499.8,-139.3"/>
</g>
<!-- UsersService -->
<g id="node9" class="node">
<title>UsersService</title>
<ellipse fill="#fdb462" stroke="black" cx="473" cy="-66.8" rx="61.97" ry="18"/>
<text text-anchor="middle" x="473" y="-62.6" font-family="Times,serif" font-size="14.00">UsersService</text>
</g>
<!-- UsersService&#45;&gt;UsersModule -->
<g id="edge8" class="edge">
<title>UsersService&#45;&gt;UsersModule</title>
<path fill="none" stroke="black" d="M450.37,-83.67C450.37,-83.67 450.37,-114.65 450.37,-114.65"/>
<polygon fill="black" stroke="black" points="446.87,-114.65 450.37,-124.65 453.87,-114.65 446.87,-114.65"/>
</g>
</g>
</svg>
